<svg width="220" height="140" viewBox="0 0 220 140" fill="none" xmlns="http://www.w3.org/2000/svg">
<path fill-rule="evenodd" clip-rule="evenodd" d="M109.953 6.32792C110.92 4.62289 113.348 4.54401 114.424 6.18266L114.726 6.64225C115.143 7.27804 115.853 7.66095 116.614 7.66095C118.372 7.66095 119.456 9.58296 118.546 11.0879L118.338 11.4318C118.058 11.8942 117.937 12.4352 117.992 12.9728L118.036 13.4027C118.227 15.247 116.439 16.6659 114.686 16.0621L114.566 16.0206C113.787 15.7525 112.932 15.8294 112.214 16.2319C110.447 17.2219 108.237 16.1338 107.945 14.1303L107.846 13.4516C107.773 12.9533 107.557 12.487 107.223 12.11L107.163 12.0423C105.957 10.6815 106.54 8.53112 108.267 7.96522C108.865 7.76944 109.368 7.35782 109.679 6.8108L109.953 6.32792ZM130.382 23.9637C130.195 32.1138 130.57 46.4467 130.946 52.9105L130.956 53.075C131.324 59.411 131.447 61.533 135.081 61.9974C137.807 62.5282 143.389 62.9529 143.915 60.4049C144.023 59.8816 144.142 58.7995 144.298 57.3652L144.298 57.3643C145.096 50.0674 146.889 33.6549 153.407 35.2989C157.681 36.3768 155.353 44.5431 153.24 51.9524C151.497 58.0647 149.9 63.6618 152.279 64.3394C157.542 65.8382 162.711 67.2434 164.403 63.4026C166.094 59.5617 171.752 43.8237 170.154 31.6454C168.65 20.1806 160.8 20.6712 156.748 20.9244C156.496 20.9402 156.259 20.955 156.039 20.966C153.031 21.1159 149.397 24.6507 147.956 26.3994C148.332 24.6507 148.859 21.0034 147.956 20.4039C147.891 20.3606 147.823 20.3146 147.752 20.2662C146.587 19.4759 144.503 18.0619 138.747 18.0619C132.638 18.0619 129.819 18.1556 130.382 23.9637ZM49.6163 80.9182C50.7113 77.9725 49.5636 75.3222 45.1825 73.4559L45.1765 73.4534C40.7907 71.5851 29.0295 66.5749 19.8588 79.1704C10.6841 91.7715 18.4696 111.934 36.8569 112.021C48.2694 111.032 53.2114 103.916 52.3667 100.488C51.522 97.0597 49.8117 90.9333 46.5507 91.8962C45.7105 92.1443 44.8137 92.6025 43.8327 93.1038C41.0059 94.5481 37.4804 96.3494 32.5991 94.5088C26.0239 92.0295 31.4523 80.7477 38.5395 85.0733C44.4792 88.6985 45.6599 87.4048 46.7473 86.2135L46.7938 86.1626C47.6013 85.2794 48.2425 83.878 48.8937 82.4552C49.1304 81.9377 49.3685 81.4175 49.6163 80.9182ZM106.712 22.4158C104.217 22.8852 104.573 26.4758 105.195 32.7553C105.322 34.0324 105.459 35.4208 105.586 36.9168C106.059 41.9074 107.745 58.8566 108.402 61.3048C108.944 63.3254 115.879 62.3956 119.551 61.9033L119.552 61.9032C120.329 61.799 120.96 61.7144 121.354 61.6815C123.606 61.4932 124.075 60.5515 124.075 58.0092C124.075 55.4668 123.512 28.5363 123.325 24.1107C123.137 19.685 109.716 21.8508 106.712 22.4158ZM177.307 42.0767C180.038 33.6479 182.189 29.6132 185.178 30.2591C188.167 30.9049 198.575 33.9563 197.911 38.2252C197.233 42.5909 189.863 62.4262 188.879 64.7636C188.789 64.9776 188.698 65.1998 188.605 65.4268C187.681 67.6786 186.568 70.3922 184.537 70.0767C182.217 69.7162 171.417 66.7742 171.757 64.2684C172.098 61.7627 175.813 46.8485 177.307 42.0767ZM39.2606 38.7125C37.4114 40.2903 41.9021 51.5101 47.3614 61.5905C49.2425 65.1843 55.3742 73.5992 56.4308 74.2128C57.4875 74.8264 61.626 73.8622 64.1795 72.3721C66.1486 71.223 65.1332 68.3538 63.8788 64.8095L63.8788 64.8094C63.5065 63.7576 63.1132 62.6463 62.7706 61.5028C61.2737 56.5065 59.0017 45.5496 64.7078 45.5496C66.9989 45.5496 69.8322 54.3151 70.8008 57.5583C71.7694 60.8016 72.0162 61.4152 75.5383 61.3275C78.4898 61.2541 79.7221 60.7497 80.873 60.2788C81.0955 60.1877 81.315 60.0979 81.5433 60.0127C82.548 59.6376 82.5139 58.6383 82.4116 55.6476C82.3705 54.4449 82.3184 52.92 82.3184 50.9842C82.3184 44.2348 84.2022 39.3261 87.8831 40.9039C89.5987 41.6393 90.5073 47.1274 90.5954 49.4064C90.6834 51.6855 92.0042 64.0448 93.5891 64.3954C95.1741 64.7461 98.0798 64.6584 100.545 63.5189C102.152 62.7764 102.001 61.6617 101.433 57.4588C101.13 55.2116 100.707 52.0815 100.369 47.6533C99.4006 34.9433 97.9037 21.3568 87.1613 21.1815C78.5673 21.0412 75.0567 30.2684 73.7066 33.8915C73.3544 30.9989 69.4979 23.6008 62.2423 25.2136C54.9868 26.8265 52.2924 34.1252 51.8521 37.573C51.1183 36.1413 49.1929 33.4006 47.3614 33.8915C45.0721 34.5051 41.1097 37.1347 39.2606 38.7125ZM101.597 94.1794C100.578 82.9295 100.875 71.0201 103.157 70.303C105.438 69.586 110.035 68.7309 112.34 69.0583C114.184 69.3203 115.436 74.1856 115.543 75.7673C115.61 75.6541 115.678 75.5381 115.747 75.4197C117.478 72.4479 120.079 67.9858 127.063 67.9858C134.363 67.9858 136.503 74.1253 135.699 76.8847C138.323 74.1201 143.312 70.4062 150.84 73.0005C160.814 76.4376 159.91 90.8421 155.855 102.743C152.28 113.234 152.102 113.225 150.282 113.131C150.038 113.119 149.763 113.105 149.447 113.114C146.779 113.196 144.122 112.153 142.827 111.223C141.532 110.294 143.832 101.712 144.636 99.6115C145.441 97.5105 147.641 87.8718 144.636 87.8718L144.542 87.8718C142.096 87.8708 140.578 87.8701 138.735 94.1794C138.286 95.7162 137.922 97.5011 137.577 99.1846C136.91 102.449 136.321 105.333 135.347 105.289C133.871 105.222 130.09 104.841 126.804 104.127C123.423 103.391 123.216 102.012 123.599 98.6963C123.662 98.1538 123.757 97.4792 123.863 96.7269L123.863 96.7263C124.406 92.8805 125.237 87.0014 123.48 86.3286C117.288 83.9582 116.249 93.5564 115.661 98.9883C115.62 99.3636 115.581 99.719 115.543 100.049C115.409 101.218 115.333 102.378 115.262 103.476V103.476V103.476V103.476L115.262 103.476C115.019 107.175 114.823 110.169 112.6 110.451C109.717 110.816 105.606 110.093 104.89 109.129C104.174 108.164 101.902 98.1651 101.597 94.1794ZM80.986 77.2379C77.1386 74.5928 66.7522 72.1659 59.247 82.0677C49.8656 94.4448 57.8081 109.401 70.3606 109.401C77.6996 109.401 81.4219 105.484 81.6674 104.426C81.492 106.319 81.6472 110.098 83.6719 110.066C86.2027 110.027 97.3843 109.357 96.8652 106.551C96.3462 103.744 95.0253 94.0643 94.9146 86.4683C94.884 84.3749 94.951 82.4291 95.0105 80.697V80.6969V80.6968V80.6968C95.1668 76.1522 95.2726 73.0777 93.4355 72.6635C90.8982 72.0914 82.8008 71.9727 81.2033 73.5305C80.6385 74.0812 80.7948 75.0248 80.9343 75.8675C81.0242 76.4101 81.1071 76.9109 80.986 77.2379ZM76.0034 88.0635C73.9284 87.2745 69.5194 86.4012 68.4832 89.2198C67.1879 92.7431 70.8229 95.3334 74.7803 93.7626C76.7524 92.9345 76.4896 91.2254 76.0034 88.0635ZM161.986 126.203C161.411 116.705 163.419 99.2824 164.941 86.0811L164.942 86.0769C165.326 82.74 165.68 79.673 165.953 77.0721C166.431 72.7331 172.147 73.5029 176.77 74.1254C177.43 74.2142 178.067 74.3 178.664 74.3676C182.486 74.8003 182.3 78.0937 181.729 79.6864C186.236 75.3592 202.643 76.3509 203.184 90.6845C203.725 105.018 195.341 108.444 189.211 108.624C184.307 108.768 180.136 107.542 178.664 106.911C178.243 110.397 177.366 118.522 177.221 123.138C177.178 124.528 177.292 125.845 177.396 127.052L177.396 127.052L177.396 127.053C177.724 130.855 177.958 133.567 172.894 134.046C166.223 134.677 161.085 134.857 161.986 126.203ZM188.581 91.3155C187.605 88.9254 182.992 88.9716 182.992 90.414L182.451 94.02C181.639 97.3555 190.384 95.7328 188.581 91.3155ZM199.005 18.6075C198.543 16.8722 196.503 16.1167 195.021 17.1321L194.33 17.6061C193.901 17.9001 193.384 18.0368 192.866 17.9929C190.889 17.8257 189.411 19.7724 190.103 21.6312L190.161 21.7846C190.357 22.3122 190.357 22.8929 190.16 23.4202L190.062 23.6826C189.398 25.4594 190.847 27.3098 192.731 27.0909C193.443 27.0082 194.156 27.2303 194.695 27.7023L194.967 27.9406C196.424 29.2159 198.71 28.5756 199.293 26.7294L199.34 26.5801C199.53 25.9758 199.913 25.4502 200.429 25.0828C202.099 23.8941 202.052 21.3974 200.337 20.2732L200.092 20.1127C199.557 19.7617 199.17 19.2258 199.005 18.6075Z" fill="#F2C72E"/>
</svg>
