<svg width="40" height="41" viewBox="0 0 40 41" fill="none" xmlns="http://www.w3.org/2000/svg">
<path d="M16.6974 6.78545C18.1422 4.20357 21.8578 4.20357 23.3026 6.78545V6.78545C24.1576 8.31323 25.9489 9.05519 27.6337 8.57944V8.57944C30.481 7.77544 33.1084 10.4027 32.3044 13.2501V13.2501C31.8286 14.9349 32.5706 16.7262 34.0983 17.5812V17.5812C36.6802 19.026 36.6802 22.7416 34.0983 24.1864V24.1864C32.5706 25.0414 31.8286 26.8326 32.3044 28.5175V28.5175C33.1084 31.3648 30.481 33.9921 27.6337 33.1881V33.1881C25.9489 32.7124 24.1576 33.4543 23.3026 34.9821V34.9821C21.8578 37.564 18.1422 37.564 16.6974 34.9821V34.9821C15.8424 33.4543 14.0511 32.7124 12.3663 33.1881V33.1881C9.51895 33.9921 6.89165 31.3648 7.69565 28.5175V28.5175C8.1714 26.8326 7.42944 25.0414 5.90166 24.1864V24.1864C3.31978 22.7416 3.31978 19.026 5.90166 17.5812V17.5812C7.42944 16.7262 8.1714 14.9349 7.69565 13.2501V13.2501C6.89165 10.4027 9.51895 7.77544 12.3663 8.57944V8.57944C14.0511 9.05519 15.8424 8.31323 16.6974 6.78545V6.78545Z" fill="#F2C72E"/>
<ellipse cx="29.0322" cy="19.5937" rx="1.93549" ry="1.93548" fill="#E882BF"/>
<ellipse cx="10.9677" cy="19.5937" rx="1.93548" ry="1.93548" fill="#E882BF"/>
<path d="M23.226 18.9482C23.226 20.3735 21.7818 21.5289 20.0002 21.5289C18.2187 21.5289 16.7744 20.3735 16.7744 18.9482" stroke="#1C2641" stroke-linecap="round"/>
<ellipse cx="25.8064" cy="16.3675" rx="1.29032" ry="1.29032" fill="#1C2641"/>
<circle cx="14.1936" cy="16.3675" r="1.29032" fill="#1C2641"/>
</svg>
